<?xml version="1.0" encoding="UTF-8"?>
<svg version="1.1" xmlns="http://www.w3.org/2000/svg" width="430" height="430">
<path d="M0 0 C0.82454681 0.00087616 1.64909363 0.00175232 2.49862671 0.00265503 C60.34375813 0.20388092 112.46230016 23.35525431 153.6875 63.375 C154.42202393 64.18142944 154.42202393 64.18142944 155.17138672 65.00415039 C156.79229692 66.67536485 156.79229692 66.67536485 160.0625 67.3125 C164.42302137 68.59058385 167.45132416 70.26210371 169.7890625 74.2578125 C170.69299371 76.38794604 170.977383 78.09020989 171.25 80.375 C172.15118582 84.64015427 173.86467748 87.22234096 176.5625 90.625 C200.96389835 121.50986168 215.66317009 165.01922082 215.890625 204.23046875 C215.89768463 205.04619354 215.90474426 205.86191833 215.91201782 206.70236206 C216.23948239 255.67256577 205.27443709 301.74314723 175.75 341.75 C173.39865083 344.99814281 172.12683064 347.74434569 171.125 351.625 C169.8265428 356.60763396 167.90362802 359.42388157 163.6875 362.375 C162.42805009 362.84644564 161.15140139 363.27386417 159.86328125 363.66015625 C155.31349292 365.29524457 152.75686594 367.84145498 149.5625 371.375 C143.10670291 378.13448835 136.25603008 383.90112427 128.6875 389.375 C128.02685547 389.85291992 127.36621094 390.33083984 126.68554688 390.82324219 C89.97439772 417.01835661 46.65163605 431.14433197 1.5625 430.8125 C0.67629974 430.80945862 -0.20990051 430.80641724 -1.12295532 430.80328369 C-30.46133292 430.65526788 -58.32573153 424.99798364 -85.3125 413.375 C-86.01681152 413.07368164 -86.72112305 412.77236328 -87.44677734 412.46191406 C-112.24974804 401.70276451 -132.96983432 385.9147645 -152.421875 367.36328125 C-155.24625267 364.78259988 -157.20920223 363.40349594 -160.9375 362.375 C-165.39938387 361.05296034 -166.82292214 359.25581255 -169.3125 355.375 C-169.69313221 353.0489143 -170.02519945 350.71444736 -170.3125 348.375 C-172.32802252 344.26643487 -174.77479649 340.71145701 -177.4375 337 C-202.44809196 301.51488662 -214.82232397 258.91442491 -214.625 215.6875 C-214.62317719 214.85461456 -214.62135437 214.02172913 -214.61947632 213.16360474 C-214.57236226 200.34965614 -213.98329615 187.94467867 -211.3125 175.375 C-211.14089355 174.52808594 -210.96928711 173.68117187 -210.79248047 172.80859375 C-204.20792846 140.84497758 -191.00967984 111.92202375 -171.72949219 85.63037109 C-170.32247138 83.39087106 -169.7083138 81.69689751 -169.1875 79.125 C-168.12496705 74.57128737 -166.71858395 72.55894804 -163.3125 69.375 C-161.41230331 68.75252177 -159.51150736 68.13169746 -157.60546875 67.52734375 C-153.92630187 65.67835869 -151.40499488 62.72247736 -148.58691406 59.76904297 C-143.85716324 54.82400917 -138.69247842 50.60054013 -133.3125 46.375 C-132.38566406 45.60800781 -131.45882812 44.84101562 -130.50390625 44.05078125 C-93.99808377 14.57078677 -46.55768986 -0.1220872 0 0 Z " fill="#FC0505" transform="translate(214.3125,-0.375)"/>
<path d="M0 0 C1.29421875 -0.01224609 2.5884375 -0.02449219 3.921875 -0.03710938 C16.97378898 -0.05664817 29.53388618 1.71122365 42.25 4.5625 C43.73717529 4.89338623 43.73717529 4.89338623 45.25439453 5.23095703 C79.61363991 13.01710095 109.50763623 29.77668277 135.625 53.1875 C136.14304199 53.64914551 136.66108398 54.11079102 137.19482422 54.58642578 C140.01939695 57.10431506 142.82980687 59.63704728 145.625 62.1875 C144.15341629 65.80247739 142.21037669 67.59341511 139.125 69.9375 C138.3309375 70.55109375 137.536875 71.1646875 136.71875 71.796875 C134.625 73.1875 134.625 73.1875 132.625 73.1875 C132.48400879 72.56182129 132.34301758 71.93614258 132.19775391 71.29150391 C131.55603014 68.46339943 130.90316366 65.63798327 130.25 62.8125 C130.02828125 61.82765625 129.8065625 60.8428125 129.578125 59.828125 C129.35898437 58.88710937 129.13984375 57.94609375 128.9140625 56.9765625 C128.71506348 56.10725098 128.51606445 55.23793945 128.31103516 54.34228516 C127.74849228 52.00481557 127.74849228 52.00481557 125.625 50.1875 C121.50786884 49.70057209 121.50786884 49.70057209 117.92578125 51.453125 C116.25966931 53.67460759 116.3752257 54.52567914 116.75 57.25 C116.86472656 58.12140625 116.97945313 58.9928125 117.09765625 59.890625 C117.89644987 64.8845644 118.71865409 69.87506189 119.60791016 74.85375977 C121.02677348 82.94967842 121.02677348 82.94967842 120.625 86.1875 C119.48046875 87.71484375 119.48046875 87.71484375 117.8125 89.125 C113.40879952 93.16774143 109.9331001 97.79741453 106.3581543 102.56420898 C105.15716066 104.13935587 103.89575458 105.66807372 102.625 107.1875 C101.965 107.1875 101.305 107.1875 100.625 107.1875 C100.36283691 106.55658447 100.10067383 105.92566895 99.83056641 105.27563477 C98.64393802 102.43082311 97.44712206 99.59041079 96.25 96.75 C95.63125 95.26016602 95.63125 95.26016602 95 93.74023438 C94.60039062 92.79599609 94.20078125 91.85175781 93.7890625 90.87890625 C93.42248535 90.00435791 93.0559082 89.12980957 92.67822266 88.22875977 C91.79652665 86.02751396 91.79652665 86.02751396 89.625 85.1875 C86.66711431 84.7707448 86.66711431 84.7707448 83.625 85.1875 C81.34092216 87.24317005 80.68752065 88.4673102 80.421875 91.52734375 C80.65074887 94.52471113 81.41899096 96.37536855 82.75 99.0625 C84.93007268 103.6662638 86.99746464 108.29114247 88.9375 113 C89.33702881 113.93271729 89.33702881 113.93271729 89.74462891 114.88427734 C92.15467728 120.79150688 92.36053819 124.76831991 89.91015625 130.60546875 C89.18057087 132.20052973 88.43935755 133.79031562 87.6875 135.375 C86.94826197 136.97221377 86.2099417 138.56985272 85.47265625 140.16796875 C85.14273682 140.86817139 84.81281738 141.56837402 84.47290039 142.28979492 C83.5195462 144.34005693 83.5195462 144.34005693 82.625 147.1875 C78.63770109 145.650446 76.76579862 143.14596754 74.1875 139.8125 C71.28717318 136.06981739 68.57297123 132.84891191 64.625 130.1875 C60.94916555 130.00988259 60.94916555 130.00988259 57.625 131.1875 C55.95833333 132.85416667 55.95833333 132.85416667 55.625 135.1875 C56.07812384 139.27914065 57.31483646 141.49192161 59.9375 144.625 C60.64261719 145.49898437 61.34773437 146.37296875 62.07421875 147.2734375 C63.96219972 149.43030397 65.83257204 151.37863022 67.89453125 153.3515625 C76.19996677 161.58850701 76.19996677 161.58850701 76.97802734 166.34619141 C76.98282971 170.74419693 76.14884864 174.90681145 75.08837891 179.15917969 C74.33139522 182.47267834 73.99884496 185.81156669 73.625 189.1875 C68.43959101 187.40010523 64.25937557 184.39755649 59.796875 181.2890625 C56.29274112 178.94281634 53.88200533 177.51493901 49.625 178.1875 C47.68845052 179.20720318 47.68845052 179.20720318 46.625 181.1875 C45.95778464 184.10190699 45.95778464 184.10190699 46.625 187.1875 C49.53338119 190.7726743 52.65507756 192.89141444 56.63671875 195.2109375 C72.59812742 204.52884358 72.59812742 204.52884358 74.4453125 210.15625 C74.9257315 213.96909918 74.95643749 217.36492094 74.625 221.1875 C74.65570153 222.83357439 74.6948619 224.4795629 74.75 226.125 C74.70875 227.135625 74.6675 228.14625 74.625 229.1875 C73.98433594 228.99414062 73.34367188 228.80078125 72.68359375 228.6015625 C70.88675556 228.06063655 69.08849653 227.52441447 67.2890625 226.9921875 C65.15890394 226.34876717 63.04492167 225.65188023 60.9375 224.9375 C57.17245129 224.08503614 54.382842 224.42059347 50.625 225.1875 C49.77112895 228.49317489 49.77112895 228.49317489 49.625 232.1875 C52.38838249 235.78585244 54.94688016 236.86387577 59.2734375 237.94921875 C76.60389533 242.83301144 76.60389533 242.83301144 80.38037109 247.23242188 C83.19900335 252.41358249 84.625 258.28247824 84.625 264.1875 C80.17012304 263.69251367 75.87465903 263.04348415 71.5 262.0625 C67.5912041 261.26270022 64.50447221 260.92667153 60.625 262.1875 C58.33292787 264.93797381 58.33292787 264.93797381 58.875 267.6875 C59.55637292 270.40112946 59.55637292 270.40112946 61.625 273.1875 C64.64961649 273.99732452 64.64961649 273.99732452 68.25 274.44921875 C69.60747715 274.67068031 70.96415339 274.89709635 72.32006836 275.12792969 C73.02549774 275.24793335 73.73092712 275.36793701 74.45773315 275.49157715 C92.02401585 278.59932284 92.02401585 278.59932284 96.90234375 284.09765625 C100.03385821 288.66686767 102.625 293.55493898 102.625 299.1875 C101.37203125 299.22488281 100.1190625 299.26226562 98.828125 299.30078125 C97.17705379 299.36644885 95.52601345 299.43289593 93.875 299.5 C93.05 299.52255859 92.225 299.54511719 91.375 299.56835938 C87.8107451 299.72645133 85.25448332 299.85350809 82.0703125 301.54296875 C80.33761873 303.20391192 80.33761873 303.20391192 80.25 306.1875 C80.4200271 309.36452205 80.4200271 309.36452205 82.625 312.1875 C85.8788649 312.55087895 85.8788649 312.55087895 89.72265625 312.3828125 C91.17902905 312.37583415 92.63541156 312.37068667 94.09179688 312.3671875 C96.38138259 312.34667281 98.66806453 312.31306874 100.95678711 312.24609375 C113.66466993 311.91433134 113.66466993 311.91433134 118.69091797 315.17871094 C120.97029731 317.40852885 122.90005501 319.50793212 124.625 322.1875 C124.625 322.8475 124.625 323.5075 124.625 324.1875 C123.73977661 324.20937378 123.73977661 324.20937378 122.83666992 324.23168945 C120.16128771 324.30618844 117.48715108 324.40283995 114.8125 324.5 C113.88373047 324.52255859 112.95496094 324.54511719 111.99804688 324.56835938 C110.6590332 324.6215332 110.6590332 324.6215332 109.29296875 324.67578125 C108.47078857 324.70196533 107.6486084 324.72814941 106.80151367 324.75512695 C104.13448281 325.28494318 103.18856386 325.97822031 101.625 328.1875 C101.81637484 333.23315002 101.81637484 333.23315002 104.625 337.1875 C107.459604 337.32618295 110.19624283 337.34619189 113.02734375 337.27734375 C114.73892945 337.25692206 116.45051812 337.2367474 118.16210938 337.21679688 C120.86593118 337.17327014 123.56955653 337.12485954 126.27319336 337.07104492 C128.87873703 337.0228249 131.48401664 336.99291175 134.08984375 336.96484375 C135.30401222 336.9322068 135.30401222 336.9322068 136.54270935 336.89891052 C142.23729911 336.84845199 142.23729911 336.84845199 144.36231995 338.70680237 C144.77900436 339.19543259 145.19568878 339.68406281 145.625 340.1875 C144.32999578 343.05429142 142.99079202 345.05776395 140.7109375 347.21875 C140.123125 347.77602783 139.5353125 348.33330566 138.9296875 348.9074707 C138.29289062 349.49488037 137.65609375 350.08229004 137 350.6875 C136.33484375 351.30262451 135.6696875 351.91774902 134.984375 352.55151367 C115.89976394 369.91395302 93.63496571 382.86972523 69.625 392.1875 C68.62082031 392.59613281 67.61664063 393.00476563 66.58203125 393.42578125 C59.30227104 396.2350555 51.98257804 398.1795212 44.375 399.875 C43.03828247 400.17857422 43.03828247 400.17857422 41.67456055 400.48828125 C26.74563239 403.66605753 11.66518043 404.5984054 -3.5625 404.5625 C-4.76149429 404.56268127 -4.76149429 404.56268127 -5.98471069 404.56286621 C-19.4710927 404.53401367 -32.21979939 403.27959332 -45.375 400.1875 C-46.77680421 399.89325112 -48.1791236 399.60144212 -49.58203125 399.3125 C-66.69374077 395.60857567 -83.02543857 388.48269103 -98.375 380.1875 C-98.98424316 379.86281738 -99.59348633 379.53813477 -100.22119141 379.20361328 C-108.84591428 374.57936235 -116.71385497 369.27873826 -124.375 363.1875 C-125.27734375 362.47851562 -126.1796875 361.76953125 -127.109375 361.0390625 C-134.52328483 355.10364914 -141.45822726 348.68640729 -148.375 342.1875 C-146.5 338.3125 -146.5 338.3125 -145.375 337.1875 C-142.59839406 337.13600367 -139.84562974 337.1457881 -137.0703125 337.1953125 C-135.3554747 337.21283216 -133.64063056 337.22974012 -131.92578125 337.24609375 C-129.21092396 337.2770617 -126.49637944 337.31256178 -123.78173828 337.35888672 C-121.16955629 337.40117964 -118.55774306 337.42465702 -115.9453125 337.4453125 C-115.1327298 337.46393341 -114.32014709 337.48255432 -113.48294067 337.5017395 C-109.29302631 337.64196953 -109.29302631 337.64196953 -105.66403198 335.85470581 C-104.11661746 334.13531665 -104.11661746 334.13531665 -103.9375 331.1875 C-104.09307856 328.21279757 -104.09307856 328.21279757 -105.79296875 326.57421875 C-109.72884744 324.46039585 -113.72000129 324.35461216 -118.125 324 C-119.45724609 323.8772168 -119.45724609 323.8772168 -120.81640625 323.75195312 C-123.00184071 323.55220912 -125.18762449 323.3644855 -127.375 323.1875 C-126.43909496 322.0819811 -125.50120142 320.97814547 -124.5625 319.875 C-124.04042969 319.26011719 -123.51835938 318.64523437 -122.98046875 318.01171875 C-122.45066406 317.40972656 -121.92085937 316.80773437 -121.375 316.1875 C-120.76410522 315.34348633 -120.76410522 315.34348633 -120.14086914 314.48242188 C-117.33441684 312.42443446 -114.28206213 312.7667994 -110.93359375 312.78125 C-109.84837181 312.76499573 -109.84837181 312.76499573 -108.7412262 312.74841309 C-105.64761832 312.70251664 -102.55409274 312.69104056 -99.46020508 312.67626953 C-97.2010273 312.66061539 -94.94255959 312.62762921 -92.68359375 312.59375 C-91.63044228 312.59828186 -91.63044228 312.59828186 -90.55601501 312.60290527 C-88.37159786 312.6030399 -88.37159786 312.6030399 -85.375 312.1875 C-83.06138198 308.71707297 -82.86479272 307.26915827 -83.375 303.1875 C-85.19230894 301.07399982 -86.73677969 300.28719884 -89.48486328 299.85791016 C-92.03356632 299.66743405 -94.57009235 299.56604266 -97.125 299.5 C-98.01316406 299.46583984 -98.90132812 299.43167969 -99.81640625 299.39648438 C-102.00247803 299.31421286 -104.18815951 299.24499828 -106.375 299.1875 C-106.07078125 298.59888184 -105.7665625 298.01026367 -105.453125 297.40380859 C-104.24625905 295.02234268 -104.24625905 295.02234268 -103.125 291.7265625 C-100.75889747 286.08177938 -98.35291368 281.47334786 -92.51855469 278.95410156 C-85.86323439 276.96841584 -79.08399956 275.86288109 -72.24047852 274.74438477 C-68.53944184 274.02511539 -65.66738312 273.0217614 -62.375 271.1875 C-60.96357248 268.3029892 -60.96357248 268.3029892 -61.375 265.1875 C-62.59935155 262.54512154 -62.59935155 262.54512154 -65.375 261.1875 C-70.74849911 260.94081242 -76.15237673 262.4926013 -81.33203125 263.78515625 C-83.375 264.1875 -83.375 264.1875 -87.375 264.1875 C-86.94266547 262.51948595 -86.50380988 260.85316192 -86.0625 259.1875 C-85.81886719 258.259375 -85.57523438 257.33125 -85.32421875 256.375 C-85.01097656 255.323125 -84.69773438 254.27125 -84.375 253.1875 C-84.27662842 252.53628174 -84.17825684 251.88506348 -84.0769043 251.21411133 C-83.52224527 248.71711472 -82.93862225 247.23197475 -81.375 245.1875 C-77.06487575 242.78722587 -72.50427163 241.35851648 -67.8125 239.875 C-65.3268479 239.05996459 -62.84907718 238.22515424 -60.37109375 237.38671875 C-59.26950928 237.03440186 -58.1679248 236.68208496 -57.03295898 236.3190918 C-54.08916771 235.35271499 -54.08916771 235.35271499 -52.375 232.1875 C-52.69230524 228.54810068 -52.69230524 228.54810068 -53.375 225.1875 C-59.38162299 223.85535386 -63.52485856 224.7255427 -69.3125 226.625 C-70.09173828 226.86798828 -70.87097656 227.11097656 -71.67382812 227.36132812 C-73.57828709 227.95720179 -75.47725641 228.57057323 -77.375 229.1875 C-77.26045196 226.31174132 -77.1337153 223.43737888 -77 220.5625 C-76.9690625 219.75425781 -76.938125 218.94601563 -76.90625 218.11328125 C-76.86757812 217.32050781 -76.82890625 216.52773437 -76.7890625 215.7109375 C-76.74193115 214.6269165 -76.74193115 214.6269165 -76.69384766 213.52099609 C-76.08727507 209.08177649 -75.40601405 206.09204828 -71.96069336 203.06933594 C-70.97206299 202.44317383 -69.98343262 201.81701172 -68.96484375 201.171875 C-67.89298828 200.47835937 -66.82113281 199.78484375 -65.71679688 199.0703125 C-64.58254265 198.35855938 -63.44777063 197.6476308 -62.3125 196.9375 C-60.08792455 195.52252207 -57.86996852 194.09777702 -55.65234375 192.671875 C-54.66484131 192.05022461 -53.67733887 191.42857422 -52.65991211 190.78808594 C-50.27769792 189.38955154 -50.27769792 189.38955154 -49.375 187.1875 C-49.11359126 184.11594731 -48.93595252 181.988116 -50.4375 179.25 C-53.61426178 177.50790483 -55.90614569 178.39562013 -59.375 179.1875 C-62.14781058 180.64824851 -64.65096662 182.41511466 -67.1875 184.25 C-74.15927694 189.1875 -74.15927694 189.1875 -76.375 189.1875 C-76.50777344 188.13691406 -76.64054687 187.08632812 -76.77734375 186.00390625 C-76.86338867 185.32803467 -76.94943359 184.65216309 -77.03808594 183.95581055 C-77.22196862 182.47771445 -77.39832935 180.99866431 -77.56738281 179.51879883 C-77.92441598 176.44091499 -78.29031926 173.50844467 -79.08203125 170.5078125 C-79.69760474 168.08980442 -79.92010848 166.63373062 -79.375 164.1875 C-76.86000925 160.68814728 -73.89268697 157.73553384 -70.84619141 154.69824219 C-62.17325263 146.0396489 -62.17325263 146.0396489 -58.75 134.875 C-59.059375 133.0496875 -59.059375 133.0496875 -59.375 131.1875 C-63.85163766 129.61008322 -63.85163766 129.61008322 -68.375 130.1875 C-73.81177152 134.25569313 -78.18806553 140.11490654 -82.1015625 145.61328125 C-82.52179688 146.13277344 -82.94203125 146.65226563 -83.375 147.1875 C-84.035 147.1875 -84.695 147.1875 -85.375 147.1875 C-85.84550781 146.04152344 -86.31601563 144.89554688 -86.80078125 143.71484375 C-87.42966017 142.1848846 -88.05856795 140.65493731 -88.6875 139.125 C-89.1505957 137.99674805 -89.1505957 137.99674805 -89.62304688 136.84570312 C-89.92919922 136.10126953 -90.23535156 135.35683594 -90.55078125 134.58984375 C-90.82833252 133.91429443 -91.10588379 133.23874512 -91.3918457 132.54272461 C-92.41686519 129.98519198 -92.41686519 129.98519198 -94.13696289 126.86791992 C-95.64491997 122.38508558 -94.8567477 120.01765554 -93.0078125 115.8984375 C-92.73484344 115.23212311 -92.46187439 114.56580872 -92.18063354 113.87930298 C-91.31032527 111.76309209 -90.40791964 109.66281756 -89.5 107.5625 C-88.60358784 105.45369161 -87.71480706 103.34246597 -86.84078979 101.22427368 C-86.29728004 99.91059098 -85.74031695 98.60237077 -85.16824341 97.3008728 C-83.60702536 93.56860262 -82.87750609 91.0294944 -84.375 87.1875 C-87.63781174 85.01229218 -88.6090908 84.90505681 -92.375 85.1875 C-93.365 85.5175 -94.355 85.8475 -95.375 86.1875 C-96.22704049 87.87949595 -96.22704049 87.87949595 -96.75 90 C-98.53272806 95.91064918 -100.94765501 101.51729885 -103.375 107.1875 C-107.6081151 105.65616574 -109.69838012 102.50823218 -112.25 99 C-115.00297468 95.23124093 -117.57486898 91.9343295 -121.125 88.875 C-123.47829095 86.26462684 -123.37311708 85.04787425 -123.32421875 81.421875 C-122.90557079 77.29459332 -122.16600553 73.2584866 -121.375 69.1875 C-120.64465461 65.22488279 -120.21533873 61.46854819 -120.1875 57.4375 C-120.16623047 56.02210937 -120.16623047 56.02210937 -120.14453125 54.578125 C-120.13719207 52.001315 -120.13719207 52.001315 -122.375 50.1875 C-125.06339385 49.91758094 -127.66641936 50.10012643 -130.375 50.1875 C-130.49093506 50.77764893 -130.60687012 51.36779785 -130.72631836 51.97583008 C-131.25302567 54.6509557 -131.78272865 57.32547956 -132.3125 60 C-132.49490234 60.92876953 -132.67730469 61.85753906 -132.86523438 62.81445312 C-133.13110352 64.1534668 -133.13110352 64.1534668 -133.40234375 65.51953125 C-133.56468506 66.34171143 -133.72702637 67.1638916 -133.89428711 68.01098633 C-134.375 70.1875 -134.375 70.1875 -135.375 73.1875 C-138.48242423 71.71931332 -141.27971739 69.98725 -144.125 68.0625 C-144.92421875 67.52367188 -145.7234375 66.98484375 -146.546875 66.4296875 C-147.15015625 66.01976563 -147.7534375 65.60984375 -148.375 65.1875 C-147.51379651 60.53463485 -144.70725054 58.25380007 -141.3125 55.1875 C-140.68690186 54.61717041 -140.06130371 54.04684082 -139.41674805 53.45922852 C-100.48824658 18.55133017 -52.20925199 0.02584616 0 0 Z " fill="#F9F8F8" transform="translate(216.375,12.8125)"/>
<path d="M0 0 C6.66983722 2.74423192 11.18761042 13.38628104 14.69921875 19.44921875 C15.59672421 20.98214819 16.52810461 22.49615076 17.50390625 23.98046875 C23.30983257 32.95181791 27.0933573 43.01332754 31.1171875 52.87109375 C31.54257812 53.90621094 31.96796875 54.94132812 32.40625 56.0078125 C35.76453539 64.70386044 38.02799972 73.79999837 40.1171875 82.87109375 C40.28669922 83.59780273 40.45621094 84.32451172 40.63085938 85.07324219 C47.64968287 116.89093793 44.00813237 152.88640365 35.1171875 183.87109375 C34.79878906 184.98742187 34.48039062 186.10375 34.15234375 187.25390625 C31.59724838 195.47846216 27.94071598 203.17771258 24.1171875 210.87109375 C23.74819336 211.61842773 23.37919922 212.36576172 22.99902344 213.13574219 C9.51925862 240.21893938 9.51925862 240.21893938 -0.8828125 249.87109375 C-2.8628125 247.89109375 -2.8628125 247.89109375 -4.8828125 245.87109375 C-4.51929688 245.27159912 -4.15578125 244.67210449 -3.78125 244.05444336 C-2.13241769 241.31510929 -0.50757199 238.56226833 1.1171875 235.80859375 C1.68953125 234.86564453 2.261875 233.92269531 2.8515625 232.95117188 C7.07966148 225.85309519 7.07966148 225.85309519 7.1171875 217.87109375 C3.6354404 215.54992901 2.21322545 215.33797541 -1.8828125 215.87109375 C-3.91530018 217.64330049 -3.91530018 217.64330049 -5.3828125 220.18359375 C-6.25099609 221.53517578 -6.25099609 221.53517578 -7.13671875 222.9140625 C-9.84564936 227.50166982 -12.42856493 232.14239696 -14.8828125 236.87109375 C-18.98728642 236.35332754 -20.83980773 234.22481931 -23.6328125 231.30859375 C-24.43203125 230.48230469 -25.23125 229.65601563 -26.0546875 228.8046875 C-26.65796875 228.16660156 -27.26125 227.52851563 -27.8828125 226.87109375 C-25.96114553 219.62506289 -21.7326249 213.33475452 -17.96289062 206.92578125 C-17.42728516 205.97960937 -16.89167969 205.0334375 -16.33984375 204.05859375 C-15.84460205 203.20652344 -15.34936035 202.35445312 -14.83911133 201.4765625 C-13.62402869 198.16602843 -13.87563304 196.22504521 -14.8828125 192.87109375 C-17.67410758 190.65047381 -17.67410758 190.65047381 -20.6953125 190.68359375 C-26.59143271 192.88018755 -28.75859509 198.86287633 -31.7109375 204.13671875 C-32.32453125 205.2246875 -32.938125 206.31265625 -33.5703125 207.43359375 C-34.13105469 208.46613281 -34.69179688 209.49867188 -35.26953125 210.5625 C-35.80191406 211.32433594 -36.33429688 212.08617187 -36.8828125 212.87109375 C-37.8728125 212.87109375 -38.8628125 212.87109375 -39.8828125 212.87109375 C-41.63021332 210.64820972 -43.13498732 208.50249404 -44.6328125 206.12109375 C-45.05691406 205.486875 -45.48101562 204.85265625 -45.91796875 204.19921875 C-48.9274203 199.49388733 -48.9274203 199.49388733 -48.74316406 196.92138672 C-47.60037645 194.19802395 -46.00075147 192.66825198 -43.8828125 190.61328125 C-43.0784375 189.82308594 -42.2740625 189.03289062 -41.4453125 188.21875 C-40.5996875 187.40277344 -39.7540625 186.58679688 -38.8828125 185.74609375 C-37.21408092 184.12060674 -35.54731098 182.49310268 -33.8828125 180.86328125 C-32.7690625 179.78602783 -32.7690625 179.78602783 -31.6328125 178.68701172 C-29.2857847 176.25157746 -28.90907579 175.29130633 -28.6953125 171.87109375 C-28.55797465 168.7548505 -28.55797465 168.7548505 -30.8828125 166.87109375 C-34.11242079 166.31064112 -35.79107379 166.08297703 -38.8828125 166.87109375 C-42.09395081 169.15483284 -44.62876298 171.95102374 -47.2578125 174.87109375 C-48.6574281 176.37485497 -50.06087643 177.87506112 -51.46875 179.37109375 C-52.38213135 180.3765625 -52.38213135 180.3765625 -53.31396484 181.40234375 C-54.8828125 182.87109375 -54.8828125 182.87109375 -56.8828125 182.87109375 C-57.7500545 180.4584205 -58.60178186 178.04204906 -59.4453125 175.62109375 C-59.69216797 174.93917969 -59.93902344 174.25726563 -60.19335938 173.5546875 C-62.27856731 167.50464756 -62.27856731 167.50464756 -60.8828125 163.87109375 C-58.73286433 161.93993271 -56.62759961 160.21581821 -54.3203125 158.49609375 C-53.68714111 158.00786133 -53.05396973 157.51962891 -52.40161133 157.01660156 C-49.03067903 154.42881516 -45.59254475 151.99924326 -42.0703125 149.62109375 C-39.13485474 147.44784712 -38.90143753 146.92892937 -37.6953125 143.18359375 C-37.6377409 139.98824592 -37.6377409 139.98824592 -38.9453125 137.93359375 C-41.75269917 136.39405912 -43.70941825 136.57840205 -46.8828125 136.87109375 C-49.70876609 138.40315351 -49.70876609 138.40315351 -52.3203125 140.55859375 C-53.26390625 141.28433594 -54.2075 142.01007813 -55.1796875 142.7578125 C-56.51773437 143.80388672 -56.51773437 143.80388672 -57.8828125 144.87109375 C-59.27240583 145.87974684 -60.66712133 146.8814447 -62.0703125 147.87109375 C-63.4625 148.86109375 -63.4625 148.86109375 -64.8828125 149.87109375 C-68.12925032 145.00143703 -67.9294378 140.36423132 -67.90625 134.6484375 C-67.90286621 133.5668335 -67.89948242 132.48522949 -67.89599609 131.37084961 C-67.89164551 130.54593018 -67.88729492 129.72101074 -67.8828125 128.87109375 C-66.72495239 128.34938599 -66.72495239 128.34938599 -65.54370117 127.81713867 C-62.67305149 126.51980298 -59.80524454 125.21642937 -56.93920898 123.90893555 C-55.69975017 123.34498583 -54.45919701 122.78343475 -53.2175293 122.22436523 C-51.42989774 121.41896455 -49.64653017 120.60412087 -47.86328125 119.7890625 C-46.78973389 119.30203857 -45.71618652 118.81501465 -44.61010742 118.31323242 C-42.15434292 117.01467357 -40.55710665 116.06307155 -38.8828125 113.87109375 C-38.48915682 110.72184827 -38.35426719 108.75200259 -40.0078125 105.99609375 C-42.82705223 104.30454991 -44.5950722 104.56681079 -47.8828125 104.87109375 C-51.0681331 105.99237885 -54.08741938 107.41716413 -57.1328125 108.87109375 C-58.74074704 109.62417702 -60.35005885 110.37432881 -61.9609375 111.12109375 C-63.01909668 111.62382812 -63.01909668 111.62382812 -64.09863281 112.13671875 C-65.8828125 112.87109375 -65.8828125 112.87109375 -67.8828125 112.87109375 C-67.76623665 111.05803244 -67.63902291 109.24565475 -67.5078125 107.43359375 C-67.43820312 106.42425781 -67.36859375 105.41492188 -67.296875 104.375 C-66.79448679 100.12365825 -65.87726828 96.03062999 -64.8828125 91.87109375 C-64.30950195 91.79068848 -63.73619141 91.7102832 -63.14550781 91.62744141 C-57.59618388 90.84724163 -52.04913433 90.05250826 -46.50341797 89.24707031 C-44.29913615 88.93082343 -42.09375988 88.62816147 -39.88671875 88.33203125 C-38.83355469 88.17992187 -37.78039062 88.0278125 -36.6953125 87.87109375 C-35.79425781 87.74734375 -34.89320313 87.62359375 -33.96484375 87.49609375 C-31.50822969 86.99977424 -31.50822969 86.99977424 -29.8828125 83.87109375 C-29.38799485 79.76060727 -29.38799485 79.76060727 -31.1484375 76.203125 C-37.52365812 71.3068407 -53.2753103 75.94294533 -60.8828125 76.87109375 C-58.48573936 68.69284423 -54.79422478 61.40458097 -50.8828125 53.87109375 C-44.8578432 54.27065541 -38.94095876 54.7828735 -33.0078125 55.93359375 C-26.1466138 57.37153186 -26.1466138 57.37153186 -19.5078125 55.74609375 C-17.61881415 53.89594065 -17.61881415 53.89594065 -17.3828125 50.87109375 C-17.57679206 47.82714611 -17.57679206 47.82714611 -19.61621094 46.2565918 C-22.03408226 44.77862758 -23.87347984 44.21898251 -26.6484375 43.703125 C-27.53789062 43.53232422 -28.42734375 43.36152344 -29.34375 43.18554688 C-30.26414062 43.01990234 -31.18453125 42.85425781 -32.1328125 42.68359375 C-33.06867188 42.50634766 -34.00453125 42.32910156 -34.96875 42.14648438 C-37.27181771 41.71172159 -39.57627269 41.28696987 -41.8828125 40.87109375 C-41.01351114 36.62544194 -38.82286564 33.78995725 -36.1953125 30.43359375 C-35.77314453 29.87349609 -35.35097656 29.31339844 -34.91601562 28.73632812 C-31.92870282 24.87489966 -28.72607247 21.88155361 -24.8828125 18.87109375 C-24.21749512 19.14373047 -23.55217773 19.41636719 -22.86669922 19.69726562 C-19.83467456 20.93267181 -16.79642556 22.15198755 -13.7578125 23.37109375 C-12.71109375 23.80035156 -11.664375 24.22960937 -10.5859375 24.671875 C-9.56757813 25.07792969 -8.54921875 25.48398438 -7.5 25.90234375 C-6.56784668 26.27939453 -5.63569336 26.65644531 -4.67529297 27.04492188 C-1.57045277 27.96350722 0.89618979 28.15911819 4.1171875 27.87109375 C6.33088801 26.08451618 6.33088801 26.08451618 6.3125 23.70703125 C6.28929687 22.89492187 6.26609375 22.0828125 6.2421875 21.24609375 C6.22414063 20.42882812 6.20609375 19.6115625 6.1875 18.76953125 C6.16429687 18.14304687 6.14109375 17.5165625 6.1171875 16.87109375 C4.8590625 16.47921875 3.6009375 16.08734375 2.3046875 15.68359375 C-3.28493802 13.83225281 -8.56549457 11.38563849 -13.8828125 8.87109375 C-5.15723453 -0.35308867 -5.15723453 -0.35308867 0 0 Z " fill="#F9F7F7" transform="translate(373.8828125,91.12890625)"/>
<path d="M0 0 C3.92297846 0.56340648 6.49080356 1.70090379 9.75 3.9375 C10.91789062 4.72447266 10.91789062 4.72447266 12.109375 5.52734375 C14 7 14 7 15 9 C14.4652002 9.23187012 13.93040039 9.46374023 13.37939453 9.70263672 C10.9591147 10.75522962 8.54205229 11.81501804 6.125 12.875 C4.86236328 13.42220703 4.86236328 13.42220703 3.57421875 13.98046875 C2.36572266 14.51220703 2.36572266 14.51220703 1.1328125 15.0546875 C0.38918457 15.37937012 -0.35444336 15.70405273 -1.12060547 16.03857422 C-3.17089061 16.96590354 -3.17089061 16.96590354 -5 19 C-5.33333333 22.5 -5.33333333 22.5 -5 26 C-3.13859788 28.28851417 -3.13859788 28.28851417 -0.20361328 28.25244141 C3.09033083 27.99288202 5.26125257 27.31153904 8.2578125 25.9609375 C9.21300781 25.54585937 10.16820312 25.13078125 11.15234375 24.703125 C13.14354003 23.81349723 15.13311458 22.92023123 17.12109375 22.0234375 C18.07371094 21.6109375 19.02632812 21.1984375 20.0078125 20.7734375 C21.30162842 20.19215088 21.30162842 20.19215088 22.62158203 19.59912109 C25 19 25 19 27.17553711 19.75561523 C33.60769177 24.14270105 38.80603323 31.50611596 43 38 C43 38.66 43 39.32 43 40 C42.24976562 40.18175781 41.49953125 40.36351562 40.7265625 40.55078125 C35.58807184 41.81275314 30.46188745 43.10485389 25.375 44.5625 C24.57835938 44.79066406 23.78171875 45.01882812 22.9609375 45.25390625 C20.80666965 45.92037443 20.80666965 45.92037443 19 48 C18.5341283 52.08339871 18.5341283 52.08339871 20.171875 55.703125 C22.77667628 57.55097548 24.42347038 57.1603716 27.5625 56.8125 C28.63113281 56.69648438 29.69976562 56.58046875 30.80078125 56.4609375 C34.39888783 55.94252898 37.92116058 55.26028546 41.453125 54.40234375 C44.99637212 53.84259766 48.41375765 53.94325566 52 54 C53.322644 56.53682516 54.63317361 59.07877651 55.9375 61.625 C56.31068359 62.33785156 56.68386719 63.05070312 57.06835938 63.78515625 C59.14783988 67.86918102 60.53994321 71.3702221 61 76 C55.18212321 76.09316885 49.74279529 75.97749707 44 75 C42.27298052 74.88014376 40.54295511 74.79986902 38.8125 74.75 C37.97332031 74.72421875 37.13414063 74.6984375 36.26953125 74.671875 C33.939891 74.82453654 33.939891 74.82453654 32.21875 76.328125 C30.35265938 78.88801854 30.67965492 80.92468723 31 84 C32.70500625 87.28731868 32.70500625 87.28731868 36.02514648 87.75195312 C37.92889038 88.01395508 37.92889038 88.01395508 39.87109375 88.28125 C40.54922623 88.38087036 41.2273587 88.48049072 41.92604065 88.58312988 C44.09494553 88.90129642 46.26566438 89.20254093 48.4375 89.5 C51.29263213 89.89199884 54.14470933 90.30046041 56.99609375 90.71875 C58.90152954 90.98075195 58.90152954 90.98075195 60.84545898 91.24804688 C63.99226207 91.9981555 65.16821125 92.39884383 67 95 C68.74268756 100.85244806 69.2702093 106.92029077 69 113 C63.51656397 112.23960164 58.83765157 109.77517523 53.8828125 107.43945312 C50.14266503 105.73521612 47.20575204 104.43249557 43 105 C41.06345052 106.01970318 41.06345052 106.01970318 40 108 C39.33319632 110.95720628 39.33319632 110.95720628 40 114 C43.28550223 117.04958405 46.66863868 118.96880026 50.73828125 120.796875 C51.80498047 121.28027344 52.87167969 121.76367188 53.97070312 122.26171875 C55.07349609 122.75285156 56.17628906 123.24398437 57.3125 123.75 C58.43462891 124.25660156 59.55675781 124.76320313 60.71289062 125.28515625 C63.47243719 126.52988789 66.2347916 127.76791036 69 129 C69.02723472 130.89054362 69.04650157 132.78120291 69.0625 134.671875 C69.07410156 135.7247168 69.08570312 136.77755859 69.09765625 137.86230469 C68.96482359 142.13021817 68.09810166 145.88211878 67 150 C61.18423958 147.02750023 56.66816898 143.22685996 51.84375 138.828125 C48.30351663 136.55226069 46.13470873 136.58160685 42 137 C39.85219923 137.89757556 39.85219923 137.89757556 39 140 C38.91758317 143.56127458 39.0934401 146.02201671 41.58349609 148.70825195 C43.72543555 150.44906269 45.92098133 152.04992967 48.1875 153.625 C49.70258327 154.72030317 51.21691934 155.81664073 52.73046875 156.9140625 C53.45540527 157.43129883 54.1803418 157.94853516 54.92724609 158.48144531 C57.72977165 160.53465014 60.36400645 162.73817459 63 165 C61.83348574 170.92863717 60.24480642 176.38798394 58 182 C55 182 55 182 53.37768555 180.63891602 C52.8031665 180.01686279 52.22864746 179.39480957 51.63671875 178.75390625 C50.99669922 178.08166016 50.35667969 177.40941406 49.69726562 176.71679688 C48.36481733 175.28852625 47.03663177 173.85626613 45.71289062 172.41992188 C41.78843754 168.28428342 41.78843754 168.28428342 36.66796875 165.9609375 C33.97234636 165.82474424 33.97234636 165.82474424 31.625 167.0625 C29.80734538 168.94593281 29.80734538 168.94593281 29.3125 171.6875 C30.62960545 178.03355351 35.8559853 181.91087114 40.39453125 186.26171875 C40.9872583 186.83656006 41.57998535 187.41140137 42.19067383 188.00366211 C43.38790897 189.15921776 44.59733831 190.3022834 45.8190918 191.43188477 C47.5 193.046875 47.5 193.046875 50 196 C49.68096251 198.92686956 48.53286567 201.02042969 46.93359375 203.453125 C46.53076172 204.071875 46.12792969 204.690625 45.71289062 205.328125 C45.29201172 205.96234375 44.87113281 206.5965625 44.4375 207.25 C43.80038086 208.22453125 43.80038086 208.22453125 43.15039062 209.21875 C42.1052694 210.81578918 41.05330163 212.4083442 40 214 C35.23874028 209.86841964 32.65475462 204.44717617 29.62304688 199.0234375 C29.19958984 198.2809375 28.77613281 197.5384375 28.33984375 196.7734375 C27.77317993 195.75902588 27.77317993 195.75902588 27.19506836 194.72412109 C25.94858049 192.70005998 25.94858049 192.70005998 23 191 C18.49149818 191.34445598 18.49149818 191.34445598 15 194 C14.49041543 198.71831434 15.41399127 201.44290641 17.80859375 205.4765625 C18.68161133 206.97703125 18.68161133 206.97703125 19.57226562 208.5078125 C20.18779297 209.53648437 20.80332031 210.56515625 21.4375 211.625 C22.64868127 213.67724392 23.85588907 215.73183947 25.05859375 217.7890625 C25.59798584 218.69350098 26.13737793 219.59793945 26.69311523 220.52978516 C27.87901676 222.77132293 28.73644727 224.4823514 29 227 C27.015625 229.578125 27.015625 229.578125 24.25 232.25 C23.34765625 233.14203125 22.4453125 234.0340625 21.515625 234.953125 C19 237 19 237 16 237 C14.68139648 235.28759766 14.68139648 235.28759766 13.37109375 232.9140625 C12.89349609 232.06585938 12.41589844 231.21765625 11.92382812 230.34375 C11.43333984 229.4465625 10.94285156 228.549375 10.4375 227.625 C9.4596901 225.86570709 8.47933503 224.10782568 7.49609375 222.3515625 C7.06482178 221.56604004 6.6335498 220.78051758 6.18920898 219.97119141 C5.0277962 217.86767072 5.0277962 217.86767072 3 216 C-0.10347254 215.66984335 -2.15781176 215.49468706 -4.875 217.125 C-6.51014384 219.85023974 -6.2296862 221.85760564 -6 225 C-4.94532507 227.66166642 -4.94532507 227.66166642 -3.375 230.1796875 C-2.83359375 231.1078125 -2.2921875 232.0359375 -1.734375 232.9921875 C-0.87585937 234.41917969 -0.87585937 234.41917969 0 235.875 C0.57234375 236.84953125 1.1446875 237.8240625 1.734375 238.828125 C3.14480014 241.22584774 4.56682849 243.61582771 6 246 C5.01 246.99 4.02 247.98 3 249 C-1.20920454 247.47813657 -3.23214998 244.41758094 -5.6875 240.875 C-6.33887939 239.94554565 -6.33887939 239.94554565 -7.00341797 238.99731445 C-21.9523732 217.26349923 -32.59716077 192.77300336 -38 167 C-38.29115576 165.6717629 -38.58281142 164.34363528 -38.875 163.015625 C-41.62125359 150.07654558 -42.2370995 137.32297248 -42.25 124.125 C-42.25100708 123.40344727 -42.25201416 122.68189453 -42.25305176 121.93847656 C-42.24131409 109.42750885 -41.37841971 97.3072968 -39 85 C-38.86078125 84.25975586 -38.7215625 83.51951172 -38.578125 82.75683594 C-32.82096194 53.13143434 -19.44359354 23.17779362 0 0 Z " fill="#F9F7F7" transform="translate(55,91)"/>
</svg>
